<?xml version="1.0" encoding="UTF-8"?>
<svg id="Layer_1" xmlns="http://www.w3.org/2000/svg" version="1.1" viewBox="0 0 220 49">
  <!-- Generator: Adobe Illustrator 29.5.1, SVG Export Plug-In . SVG Version: 2.1.0 Build 141)  -->
  <g id="Page-1">
    <path id="Shape" d="M49.05,5.85c.37-.05.41.46,0,.55-.87.18-1.15.83-1.61,1.84-.74,1.7-1.29,3.77-1.84,6.21l-.58,2.61c-.51,2.34-.84,3.98-1.32,5.78l-.08.3c-1.33,4.97-3.13,7.13-5.34,9.29.27.36,2.9.8,5.62.91h.27c.47.01.54.17.13.53l-.88.74c-.76.62-1.72,1.25-3.25,1.31-2.16.14-3.82-.09-5.2-.41-.41-.09-.41-.28-.18-.55.78-.92,1.79-1.89,2.81-2.81.47-.42.9-2.48,1.35-5.03l.6-3.53c.15-.86.3-1.71.45-2.53l.23-1.2c.7-3.55,1.41-6.64,2.16-8.92-2.71,3.08-5.47,7.54-7.73,11.27l-.53.88c-3.78,6.22-6.62,10.01-8.02,11.61l-.1.11c-.46.51-1.06,1.1-1.38,1.1-.35,0-.2-.61-.11-1.57l.02-.18c.51-4.97.46-8.65.28-11.73-.32-4.69-1.01-8.42-1.98-10.95-.62,4.4-2.07,8.8-3.77,12.27l-.23.47c-2.76,5.52-5.06,8.69-8,10.86-2.35,1.75-4.88,2.71-7.22,2.71-1.98,0-3.08-.64-3.13-.97l2.35-3.63c.92,1.24,3.04,2.02,4.51,2.02.92,0,1.98-.14,3.04-.87l.25-.18c1.7-1.29,3.7-3.97,6.45-9.53l.2-.41c2.16-4.46,5.52-13.02,4.37-14.77-1.47-1.79-3.36-1.98-4.83-1.98s-3.31.46-4.55,1.29c-2.39,1.56-4,4.78-4,9.02,0,4.88,2.12,5.52,2.67,5.66.37.09.28.51-.09.51-1.56,0-5.75-1.79-5.75-6.67,0-4.51,2.71-7.5,6.67-9.38,1.98-.97,4.19-1.33,6.76-1.33,4.46,0,7.5,1.75,8.97,6.07.88,2.65,1.34,6.44,1.42,10.89l.02,1.66c.02,2.07-.03,3.39-.15,4.38l.32-.46c1.58-2.31,2.76-4.52,5.47-8.83l.85-1.33c2.63-4.12,4.75-7.3,7.66-10.63,1.21-1.34,2.3-1.91,3.5-2.13l1.05-.16.84-.12c.24-.03.44-.06.58-.07ZM59.58,16.06c1.98,0,3.08,1.38,3.08,3.96,0,3.36-1.15,6.58-3.22,9.52-2.3,3.27-6.44,6.39-9.75,6.39-1.98,0-3.17-1.38-3.13-4.23.09-4.32,2.02-8.14,4.05-10.53,2.71-3.22,6.12-5.11,8.97-5.11ZM56.46,18c-3.68,0-5.7,8.19-5.84,12.01v.57c0,1.46.25,3.38,2.07,3.38,3.12,0,5.66-6.26,5.92-11.8v-.3c.15-3.36-1.09-3.86-2.15-3.86ZM89.85,16.16c.28,0,.32.23.23.64l-1.44,5.12-.86,3.16-.57,2.15c-.47,1.81-.74,3.03-.81,4.15-.05.97.23,1.33.83,1.33s1.52-.41,2.9-1.89c.28-.28.64-.05.37.37-.64.92-1.84,1.98-2.99,2.85-1.66,1.2-3.04,1.89-4.23,1.89-1.01,0-1.38-.78-1.38-1.75,0-1.7.92-4.65,1.84-8.1l.15-.55c.48-1.79.95-3.87,1.04-4.79v-.14c.06-.69-.04-.92-.36-.92-.41,0-1.24.51-1.61.74-.46.28-.74-.18-.28-.55,1.52-1.24,4.88-2.85,6.49-3.54.32-.14.55-.18.69-.18ZM81.62,15.93c.18.55.32,1.1.32,2.02,0,2.41-2.81,5.68-5.25,8.48l-.23.26c-3.4,3.91-6.35,6.62-6.99,7.82l-3.31,1.33.03-.23c.07-.56.13-1.52.19-2.69l.24-5.19.3-5.91c0-.18.01-.33.01-.44v-.44c-.02-.5-.1-.93-.55-.93-.6,0-1.24.41-1.84.87-.28.23-.55-.23-.23-.55.69-.69,2.12-1.7,3.77-2.76l.37-.23c.72-.43,1.67-.92,2.25-.92.43,0,.58.32.56.88v.13c-.1,1.38-.42,3.82-.65,7.08l-.08,1.21c-.16,2.62-.18,4.76-.1,5.96,1.43-1.47,3.17-3.08,4.83-5.01,1.84-2.12,2.9-4.05,3.08-6.95.05-1.29-.14-1.52-.28-1.84l3.54-1.98ZM89.25,7.09c1.61,0,2.48,1.15,2.44,2.71-.09,1.75-1.47,2.99-2.9,2.99-1.52,0-2.53-.97-2.48-2.67.05-1.79,1.43-3.04,2.94-3.04ZM129.04,16.16c1.15,0,2.81.28,3.04.37-.26.43-.63,1.33-1.05,2.45l-.1.26c-.69,1.79-1.43,4.09-1.84,5.93l-1.17,5.1c-.57,2.44-1.14,4.82-1.68,6.77-.97,3.45-2.44,6.49-5.2,8.97-1.89,1.7-4.6,2.99-6.99,2.99-2.9,0-4.6-1.24-4.6-3.31,0-1.15.69-2.35,1.66-2.94.28-.18.46-.18.41.14-.28,1.84.37,4.88,4,4.88,1.35,0,2.78-.57,3.78-1.72l.17-.21c1.93-2.21,2.99-7.64,3.82-11.41l1.04-4.54c.31-1.37.61-2.74.85-3.88l-.33.51c-.59.91-1.46,2.12-3.03,4.04-2.35,2.71-5.24,5.15-7.5,5.15-.87,0-1.84-.46-1.66-3.08.18-2.67,1.38-6.39,3.68-9.48,1.12-1.5,2.75-3.05,4.2-4.07l.31-.21c2.71-1.93,5.29-2.71,8.19-2.71ZM109.31,16.25c.97,0,1.7.32,1.61,1.98-.09,1.89-.83,3.63-1.79,6.85l-.61,2.14c-.45,1.59-.86,3.2-.86,4.21,0,.92.28,1.2.78,1.2.64,0,2.02-1.06,3.17-2.44.23-.23.64.05.41.37-1.38,2.02-5.06,5.11-7.22,5.11-1.1,0-1.61-.46-1.61-1.79,0-1.7.86-4.93,1.75-7.87l.93-3.02c.31-1.04.44-1.56.5-2.07l.02-.18.02-.28c.05-.97-.37-1.2-.78-1.2-.83,0-2.39,1.24-3.68,2.81l-.52.64c-1.15,1.43-1.87,2.45-2.51,3.77-.97,2.02-1.93,4.6-2.25,7.27-1.24.51-3.4,1.79-4.23,2.16-.38.17-.53.14-.4-.23l.03-.09c.85-2.25,1.55-4.51,2.14-6.85l.67-2.7c.63-2.6.92-4.13.92-4.71,0-.78-.18-1.15-.69-1.15-.78,0-1.94.9-2.43,1.31l-.24.21c-.37.28-.69-.14-.32-.51l.29-.29c.78-.76,1.64-1.51,3.16-2.57l.6-.41c1.33-.92,2.58-1.56,3.31-1.56.78,0,1.06.41,1.01,1.24-.09,1.89-.74,4.23-1.29,6.53,1.06-1.52,2.44-3.13,4.14-4.65,2.16-1.93,4.28-3.22,5.98-3.22ZM125.36,18.46c-2.44,0-3.59.46-4.69,1.79-2.02,2.44-3.68,7.59-3.86,10.4-.05,1.01.05,1.79.78,1.79,1.15,0,2.58-1.06,4.51-3.54,1.93-2.48,4.23-6.67,5.2-10.26-.41-.09-1.43-.18-1.93-.18ZM149.76,13.01l-.11.3c-.18.46-.23.83,0,.92.14.05.37,0,.64-.6l.29-.57c.47-.9,1.31-2.32,2.56-3.39,1.1-.92,2.44-1.61,4.37-1.61,4.52,0,4.55,4.48,4.55,7.34v.16c-.05,4.83-1.56,11.32-3.17,14.26-1.98,3.59-4.46,4.83-7.04,4.83-3.91,0-6.07-2.62-6.07-8.51,0-4.6.74-8.83,2.39-12.6.69-1.61,1.79-3.08,2.35-3.73.46-.51.23-.64-.28-.37-1.61.87-3.45,2.62-5.06,4.97-2.16,3.17-3.82,7.59-3.82,12.14,0,8.25,5.54,9.44,8.43,9.48h.13c5.45,0,10.01-3.57,12.62-7.29l.17-.25c2.12-3.04,4-7.31,4-12.79s-2.16-9.11-7.64-9.11c-3.54,0-5.34,1.38-6.49,2.35-1.29,1.12-2.3,2.67-2.84,4.07h0ZM180.52,25.26c-.78,1.52-1.98,3.54-3.54,5.29-1.15,1.29-2.3,2.16-3.08,2.16-.28,0-.83-.09-.78-1.43.05-1.01.18-1.98.92-4.65l1-3.51c.68-2.44,1.21-4.47,1.21-5.32s-.28-1.43-1.15-1.43c-1.1,0-2.02.51-3.04,1.06-1.61.87-3.4,2.16-4.14,2.94-.32.32-.09.83.32.51.87-.78,2.07-1.47,2.71-1.47.55,0,.74.28.64,1.33-.08.84-.61,2.93-1.14,4.85l-1.02,3.65c-.51,1.83-.87,3.33-.87,4.52,0,1.52.69,1.98,1.66,1.98,2.02,0,4.65-1.79,6.53-3.77l.52-.57c1.3-1.44,1.96-2.33,2.7-3.48l-.24,1.08c-.44,1.95-.87,3.72-.91,5.36,0,.83.46,1.29,1.1,1.29,1.17,0,2.37-.67,3.45-1.39l.46-.31c2.39-1.61,3.68-3.31,3.68-3.31.28-.37-.14-.64-.37-.41l-.19.21c-.51.54-1.92,1.95-2.85,1.95-.6,0-.78-.51-.69-1.79.09-1.2.6-3.45,1.33-6.35.69-2.99,1.61-5.66,2.48-7.73.14-.32.05-.46-.37-.32l-4.09,1.43c-.32,2.67-1.33,5.61-2.25,7.64ZM197.91,12.89c.3-.39.64-.33.57.01l-.02.08s-1.33,3.59-1.38,4h.3c.35.02.8.04,1.06.04h.11c2.12,0,3.91-.09,4.6-.78.23-.23.55-.05.32.32-1.15,1.66-3.17,2.53-6.58,2.67h-.46l-.35,1.16c-.29.98-.52,1.87-.81,3l-.45,1.82c-.54,2.23-.84,3.87-.97,5.29-.18,2.3.46,2.62,1.15,2.62,1.01,0,2.58-1.15,4.14-3.17.28-.32.69-.05.41.41-1.47,2.53-5.52,5.57-7.77,5.57-1.33,0-2.25-.55-2.07-3.36l.03-.37c.15-1.64.68-4.72,1.44-7.96l.39-1.61c.3-1.2.56-2.14.99-3.45h-1.14c-.73.03-1.39.05-1.39.05-.32,0-.32-.41.05-.55,1.84-.64,5.57-3.22,7.82-5.8ZM206.19,30.51c1.52,0,2.35,1.1,2.3,2.58-.09,1.66-1.38,2.85-2.76,2.85s-2.39-.92-2.35-2.53c.05-1.7,1.33-2.9,2.81-2.9ZM213.91,7.83c3.54,0,5.52,1.66,5.52,4.88,0,3.77-2.71,6.21-5.7,7.73-3.68,1.84-6.3,1.98-6.39,3.36-.05.92,1.29,2.16,2.02,2.58-.37.64-1.24,1.84-2.39,1.84-.92,0-1.47-.92-1.47-2.16,0-2.14,1.53-3.98,5.36-6.56l.66-.44c2.16-1.38,3.45-3.17,3.45-5.8,0-2.81-1.75-3.86-3.45-3.86-1.2,0-2.07.28-2.81.78-.92.64-1.29,1.56-1.29,2.48,0,.69.09,1.47.41,2.12l-2.62,1.56c-.55-.28-1.15-1.1-1.06-2.62.09-1.56,1.38-2.9,3.73-4.23,1.98-1.1,3.86-1.66,6.03-1.66Z"/>
  </g>
</svg>